<?xml version="1.0" standalone="no"?>
<!DOCTYPE svg PUBLIC "-//W3C//DTD SVG 20010904//EN"
 "http://www.w3.org/TR/2001/REC-SVG-20010904/DTD/svg10.dtd">
<svg version="1.0" xmlns="http://www.w3.org/2000/svg"
 width="383.000000pt" height="383.000000pt" viewBox="0 0 383.000000 383.000000"
 preserveAspectRatio="xMidYMid meet">
<metadata>
Created by potrace 1.14, written by Peter Selinger 2001-2017
</metadata>
<g transform="translate(0.000000,383.000000) scale(0.100000,-0.100000)"
fill="#000000" stroke="none">
<path d="M1644 3820 c-5 -5 -21 -11 -34 -14 -14 -2 -26 -5 -27 -7 -2 -1 -11
-2 -20 -3 -10 -1 -22 -4 -28 -7 -5 -4 -20 -5 -32 -4 -12 1 -20 -2 -17 -7 5 -7
-18 -12 -38 -9 -5 0 -8 -4 -8 -10 0 -5 -4 -8 -9 -5 -11 7 -74 -14 -83 -28 -4
-6 -8 -8 -8 -3 0 4 -16 1 -35 -7 -19 -8 -35 -12 -35 -8 0 4 -4 1 -8 -6 -5 -7
-17 -14 -28 -16 -11 -2 -37 -14 -57 -25 -21 -12 -44 -21 -52 -21 -8 0 -15 -4
-15 -10 0 -5 -7 -10 -15 -10 -8 0 -15 -4 -15 -10 0 -5 -7 -10 -15 -10 -8 0
-15 -5 -15 -10 0 -6 -3 -9 -7 -8 -13 2 -43 -14 -39 -21 3 -4 -5 -8 -16 -8 -11
-1 -26 -10 -34 -20 -7 -10 -14 -14 -14 -9 0 6 -7 1 -15 -10 -8 -10 -15 -16
-15 -12 0 3 -12 -4 -27 -18 -71 -60 -89 -74 -96 -74 -5 0 -5 -4 -2 -10 3 -5 1
-10 -5 -10 -13 0 -96 -83 -160 -159 -25 -30 -53 -63 -62 -73 -10 -10 -17 -20
-15 -23 1 -2 -6 -14 -15 -25 -10 -11 -18 -23 -18 -26 0 -2 -9 -14 -20 -26 -10
-12 -17 -24 -15 -28 3 -5 -2 -11 -11 -14 -8 -3 -13 -10 -9 -15 3 -5 1 -12 -4
-15 -16 -10 -61 -98 -55 -107 3 -5 1 -9 -4 -9 -12 0 -57 -100 -53 -119 1 -7
-2 -10 -7 -7 -8 5 -23 -35 -26 -69 -1 -5 -5 -13 -9 -16 -4 -3 -9 -16 -10 -27
-1 -12 -4 -22 -7 -22 -4 0 -7 -6 -8 -12 -4 -31 -10 -55 -19 -78 -6 -14 -8 -31
-6 -37 3 -7 1 -13 -4 -13 -5 0 -10 -6 -10 -12 0 -14 -9 -67 -18 -108 -3 -14
-6 -39 -7 -57 -1 -18 -4 -31 -7 -29 -3 2 -6 -17 -5 -42 0 -26 -4 -53 -9 -59
-6 -9 -5 -13 4 -13 10 0 10 -3 3 -8 -14 -9 -16 -409 -2 -436 7 -13 7 -16 -1
-12 -6 4 -11 2 -11 -3 0 -6 4 -11 8 -11 4 0 7 -22 6 -50 0 -27 2 -48 5 -46 3
2 7 -17 9 -42 2 -44 8 -87 12 -87 1 0 4 -16 6 -35 2 -19 5 -41 6 -47 1 -7 6
-13 12 -13 6 0 4 -5 -4 -10 -8 -5 -10 -10 -5 -10 6 0 12 -12 13 -27 1 -15 7
-30 13 -34 7 -4 8 -12 4 -18 -4 -7 -3 -17 2 -24 5 -7 9 -21 9 -32 -1 -11 5
-26 12 -33 7 -8 10 -18 7 -23 -4 -5 -1 -9 6 -9 7 0 10 -3 6 -6 -3 -4 0 -19 9
-35 8 -16 11 -29 7 -29 -5 0 -1 -6 7 -13 8 -7 16 -23 18 -37 1 -13 7 -27 13
-31 6 -3 10 -8 9 -10 -3 -7 24 -64 35 -71 5 -4 7 -8 2 -8 -4 0 4 -18 18 -40
14 -22 25 -44 25 -50 0 -5 5 -10 10 -10 6 0 10 -6 10 -13 0 -7 9 -23 20 -35
12 -12 18 -22 15 -22 -4 0 0 -7 7 -15 31 -34 36 -43 31 -49 -4 -3 1 -6 10 -6
10 0 17 -6 17 -12 0 -7 25 -40 55 -73 30 -33 55 -63 55 -67 0 -5 7 -8 15 -8 8
0 15 -4 15 -8 0 -10 30 -42 62 -65 14 -9 42 -33 64 -52 21 -19 44 -35 51 -35
7 0 16 -6 20 -13 9 -14 143 -101 143 -92 0 3 10 -3 22 -14 11 -11 25 -18 30
-15 4 3 8 0 8 -6 0 -6 5 -8 10 -5 5 3 10 2 10 -3 0 -5 10 -13 23 -17 12 -4 25
-8 30 -10 18 -6 22 -7 29 -6 5 0 8 -4 8 -9 0 -6 6 -10 14 -10 8 0 33 -9 57
-19 24 -11 47 -17 51 -15 4 3 8 -1 8 -8 0 -9 3 -9 10 2 8 13 10 13 10 -2 0
-11 6 -16 20 -13 11 2 20 0 20 -4 0 -4 6 -8 13 -8 6 0 32 -6 57 -13 25 -7 55
-13 68 -14 12 0 22 -4 22 -8 0 -4 9 -5 20 -3 11 2 20 1 20 -3 0 -7 30 -12 78
-15 6 0 12 -4 12 -8 0 -4 194 -8 430 -8 237 0 430 3 430 7 0 4 19 8 41 9 23 2
48 8 55 14 11 9 14 8 14 -2 0 -9 3 -10 8 -4 7 10 22 15 52 19 8 1 29 8 45 15
17 7 35 14 40 15 31 7 55 19 55 27 0 6 4 8 9 4 5 -3 12 -1 16 5 4 6 11 8 16 5
5 -4 9 -1 9 4 0 6 9 11 19 11 11 0 26 9 34 20 8 11 17 17 20 13 4 -3 7 0 7 7
0 7 3 10 7 7 3 -4 17 5 30 19 12 14 23 22 23 19 0 -6 63 58 93 95 28 34 56 87
50 94 -4 3 -2 6 4 6 10 0 28 54 24 73 -1 4 3 16 8 26 7 12 6 22 -2 31 -9 10
-9 11 1 6 6 -4 12 -2 12 3 0 6 -6 11 -12 11 -8 0 -9 3 -3 8 12 9 18 55 6 48
-12 -8 -8 27 4 36 6 5 6 8 -1 8 -6 0 -10 10 -10 23 1 12 -2 27 -6 33 -5 7 -8
16 -7 20 3 18 -14 74 -22 74 -5 0 -9 6 -9 13 0 18 -24 67 -32 67 -5 0 -8 5 -8
10 0 11 -10 24 -42 61 -10 10 -18 24 -18 29 0 6 -6 10 -13 10 -7 0 -18 9 -25
20 -15 25 -35 25 -69 3 -14 -10 -33 -18 -41 -19 -8 -2 -18 -8 -22 -14 -4 -7
-9 -11 -11 -10 -2 1 -15 -3 -29 -8 -14 -5 -29 -11 -35 -12 -5 -1 -23 -12 -39
-23 -18 -13 -26 -15 -21 -6 5 8 0 6 -13 -4 -11 -11 -25 -16 -31 -13 -5 3 -17
-1 -25 -10 -9 -8 -16 -12 -16 -8 0 3 -6 1 -14 -5 -7 -6 -25 -12 -40 -13 -14
-1 -26 -5 -26 -9 0 -6 -6 -7 -60 -11 -19 -2 -40 -9 -46 -17 -8 -10 -13 -11
-18 -2 -4 6 -12 9 -17 5 -6 -3 -32 -7 -58 -8 -26 -1 -52 -6 -59 -10 -7 -4 -12
-2 -12 6 0 10 -2 10 -9 0 -4 -8 -12 -14 -16 -14 -4 0 -12 6 -16 14 -7 11 -9
11 -9 -1 0 -11 -3 -11 -15 -1 -8 7 -15 9 -15 4 0 -5 -11 -9 -25 -9 -14 0 -25
4 -25 8 0 4 -8 3 -19 -2 -10 -6 -22 -7 -25 -3 -4 4 -24 8 -44 9 -20 1 -57 6
-81 12 -25 5 -49 8 -53 5 -4 -3 -8 0 -8 6 0 6 -4 9 -8 6 -8 -5 -87 19 -147 45
-16 7 -33 12 -37 11 -5 -1 -8 2 -8 8 0 5 -7 10 -15 10 -8 0 -15 5 -15 11 0 5
-4 8 -9 4 -5 -3 -12 -1 -16 5 -4 6 -11 8 -16 5 -5 -4 -9 -1 -9 5 0 6 -8 14
-17 17 -19 8 -24 11 -66 48 -15 14 -32 25 -37 25 -5 0 -12 9 -15 21 -4 11 -9
18 -12 16 -4 -5 -38 28 -73 70 -8 10 -30 41 -47 68 -18 28 -37 55 -43 62 -5 7
-10 19 -10 28 0 8 -5 15 -11 15 -5 0 -8 4 -4 9 3 5 1 12 -5 16 -6 4 -8 11 -5
16 4 5 1 9 -4 9 -6 0 -11 11 -11 24 0 13 -4 26 -10 28 -5 2 -11 15 -12 31 -1
15 -5 27 -9 27 -4 0 -6 8 -4 18 1 9 -1 22 -5 27 -4 6 -8 17 -9 25 -3 36 -8 60
-13 66 -4 3 -4 13 -1 21 3 8 0 19 -8 24 -8 5 -9 9 -3 9 12 0 12 29 0 48 -4 6
-5 16 -2 21 4 5 0 12 -6 14 -9 4 -9 6 -1 6 8 1 9 10 3 30 -5 19 -4 33 3 40 6
6 7 11 2 11 -6 0 -9 39 -7 92 2 51 3 108 4 126 0 17 5 32 10 32 7 0 6 5 -1 13
-6 8 -8 17 -4 21 4 4 8 17 9 29 2 33 15 111 19 118 2 3 7 21 10 40 3 18 9 36
13 39 6 5 11 24 14 58 1 6 5 12 10 12 4 0 8 9 8 19 0 11 5 23 10 26 6 4 8 11
5 16 -4 5 -1 9 5 9 7 0 10 7 6 15 -3 8 -1 15 4 15 6 0 10 7 10 15 0 7 8 18 18
24 9 5 16 12 15 15 -4 11 10 41 24 49 7 4 13 12 13 18 0 5 17 28 38 51 20 22
36 46 34 52 -2 6 -1 8 3 4 4 -4 13 -2 20 5 26 26 94 79 102 78 4 0 12 7 16 15
4 8 17 14 27 14 11 0 20 4 20 8 0 10 79 46 98 45 6 0 12 3 12 9 0 5 4 7 9 3 5
-3 13 0 16 6 4 5 13 8 21 5 8 -3 14 -1 14 4 0 6 3 9 8 9 4 -1 9 -1 12 1 3 1
21 3 40 6 57 7 64 9 79 18 10 7 12 5 6 -3 -6 -10 -3 -11 11 -3 11 5 48 10 84
11 36 1 74 3 85 5 11 2 28 -1 38 -6 11 -6 17 -5 17 2 0 7 6 8 19 0 26 -13 34
-13 25 3 -6 9 -4 9 7 1 8 -6 29 -10 47 -9 17 0 32 -2 32 -5 0 -4 17 -8 38 -9
20 -1 43 -3 50 -3 6 -1 12 -5 12 -9 0 -4 11 -6 25 -5 13 2 22 -1 19 -6 -3 -5
0 -8 7 -7 8 1 27 -3 42 -9 16 -7 33 -9 39 -6 7 4 8 2 4 -4 -4 -7 -2 -13 3 -13
26 -3 30 -4 37 -11 4 -5 16 -8 26 -8 10 0 18 -4 18 -9 0 -8 16 -15 43 -19 4
-1 15 -8 23 -17 9 -8 22 -15 31 -15 8 0 26 -9 40 -20 14 -11 32 -20 40 -20 8
0 11 -4 8 -10 -3 -5 1 -10 9 -10 8 0 22 -7 30 -16 9 -9 16 -11 16 -4 0 6 4 9
9 6 5 -3 14 1 21 9 7 8 19 15 26 15 8 0 13 3 12 8 -1 4 24 34 55 66 31 33 57
65 57 71 0 7 9 20 20 30 10 9 18 20 17 24 0 3 4 15 10 26 6 11 11 23 12 28 1
4 1 8 2 10 14 45 21 244 9 252 -4 2 -6 16 -5 30 2 14 -1 25 -5 25 -8 0 -21 29
-26 59 -2 8 -9 18 -16 22 -7 5 -9 9 -4 9 5 0 -1 9 -14 20 -13 11 -19 20 -14
20 8 0 -17 28 -65 73 -13 12 -35 33 -48 46 -13 13 -27 20 -30 17 -4 -3 -12 3
-20 14 -8 11 -19 20 -24 20 -6 0 -17 7 -26 15 -8 8 -19 13 -24 10 -5 -4 -9 -1
-9 4 0 6 -7 11 -15 11 -8 0 -15 4 -15 9 0 8 -41 23 -56 20 -4 0 -11 5 -15 13
-7 10 -9 10 -9 1 0 -8 -8 -5 -20 7 -12 12 -25 18 -31 15 -5 -4 -21 1 -36 10
-17 12 -23 13 -17 4 6 -11 5 -12 -7 -2 -15 12 -71 26 -101 25 -10 0 -18 3 -18
8 0 5 -9 7 -20 5 -11 -2 -22 0 -25 5 -7 12 -823 12 -830 0 -4 -6 -11 -10 -16
-10 -6 0 -7 5 -4 10 8 13 2 13 -11 0z"/>
<path d="M3468 3164 c-16 -8 -28 -21 -28 -28 0 -8 -4 -16 -9 -18 -5 -1 -11
-10 -13 -18 -2 -8 -7 -18 -11 -21 -4 -3 -9 -16 -10 -27 -1 -12 -5 -22 -9 -22
-4 0 -8 -6 -8 -13 0 -7 -20 -32 -44 -57 -24 -25 -42 -48 -39 -52 2 -5 -1 -8
-7 -8 -7 0 -8 -6 0 -19 10 -21 20 -21 60 -2 28 13 96 61 87 61 -3 0 12 17 34
38 21 22 36 42 32 45 -3 4 -1 7 6 7 7 0 10 4 7 9 -4 5 -2 11 4 13 5 1 11 12
13 23 1 11 6 26 10 33 5 7 3 12 -3 12 -7 0 -10 6 -7 14 3 7 -3 20 -14 30 -23
19 -17 19 -51 0z"/>
<path d="M3413 2852 c-13 -2 -23 -10 -23 -18 0 -8 -4 -13 -9 -9 -5 3 -12 1
-16 -5 -7 -11 -65 -40 -92 -45 -10 -2 -20 -4 -23 -5 -3 -1 -9 -2 -13 -1 -4 1
-17 -4 -29 -10 -16 -9 -19 -8 -13 2 6 9 3 10 -11 5 -10 -5 -31 -13 -46 -18
-16 -5 -29 -13 -29 -16 -8 -42 -4 -54 23 -68 17 -9 36 -13 44 -10 8 3 13 2 10
-2 -2 -4 15 -8 40 -9 32 -1 42 2 37 10 -5 9 -3 9 8 0 9 -7 20 -8 29 -3 8 5 18
6 22 4 4 -3 8 -1 8 3 0 5 10 10 22 10 13 1 24 7 26 13 2 5 8 10 13 10 13 0 80
62 74 68 -2 3 0 13 5 23 7 12 6 26 -1 43 -13 28 -24 34 -56 28z"/>
</g>
</svg>
