<svg width="67" height="50" viewBox="0 0 67 50" fill="none" xmlns="http://www.w3.org/2000/svg">
<path d="M65.69 1.25322C65.0498 0.496729 63.9881 0.21619 63.044 0.552837L3.08413 21.5686C1.88625 21.9909 1.04544 23.0148 0.889343 24.2411C0.734747 25.4614 1.2893 26.6454 2.32959 27.327L10.9003 33.0015C11.7306 33.5515 12.7983 33.6106 13.6875 33.1554L32.2791 23.6465L17.7893 34.1401C17.1091 34.6331 16.7027 35.419 16.7027 36.2423V45.9625C16.7027 46.9651 17.2696 47.8837 18.1823 48.3606C19.0964 48.8375 20.2006 48.7901 21.0688 48.2348L27.5803 44.0456L33.9837 48.2803C34.5447 48.6532 35.2129 48.8497 35.8871 48.8497C36.1151 48.8497 36.344 48.8268 36.5694 48.7814C37.4686 48.5995 38.264 48.0607 38.7523 47.3032L65.8801 3.91737C66.4082 3.08204 66.3324 2.01309 65.69 1.25322ZM35.7441 44.9462L29.1128 40.5606C28.6516 40.255 28.1199 40.1022 27.5888 40.1022C27.0691 40.1022 26.5489 40.2487 26.0937 40.5418L20.5346 44.1181V36.7907L46.1205 18.2612C47.2631 17.4336 47.5508 15.9273 46.7893 14.7578C46.0273 13.5882 44.5017 13.1931 43.2404 13.8383L12.5006 29.5606L5.25148 24.7609L60.4661 5.40859L35.7441 44.9462Z" fill="white"/>
</svg>
